<svg width="100" height="30" viewBox="0 0 100 30" fill="none" xmlns="http://www.w3.org/2000/svg">
<g clip-path="url(#clip0_240_40)">
<path d="M7.5 15C7.5 10 11.25 7.5 16.25 7.5C21.25 7.5 25 10 25 15C25 20 21.25 22.5 16.25 22.5C11.25 22.5 7.5 20 7.5 15Z" fill="#00A8FF" stroke="black" stroke-width="1.5"/>
<path d="M11.25 15C11.25 12.5 13.25 11.25 16.25 11.25C19.25 11.25 21.25 12.5 21.25 15C21.25 17.5 19.25 18.75 16.25 18.75C13.25 18.75 11.25 17.5 11.25 15Z" fill="black" fill-opacity="0.1"/>
<path d="M30 21.2502V8.75016C33.3333 7.91683 35.8333 8.3335 37.5 10.0002C39.1667 11.6668 39.1667 13.3335 37.5 15.0002C35.8333 16.6668 33.3333 17.0835 30 16.2502C33.3333 15.4168 35.8333 15.8335 37.5 17.5002C39.1667 19.1668 38.75 20.4168 36.25 21.2502" stroke="black" stroke-width="3" stroke-linecap="round"/>
<path d="M32 10.5004C33.6667 9.83369 34.8333 10.0837 35.5 11.2504C36.1667 12.417 35.8333 13.3337 34.5 14.0004M32 14.0004C33.6667 13.3337 34.8333 13.5004 35.5 14.5004C36.1667 15.5004 35.8333 16.3337 34.5 17.0004" stroke="#00A8FF" stroke-width="2" stroke-linecap="round"/>
<path d="M41.25 8.75V18.75C41.25 20.4167 42.0833 21.25 43.75 21.25C45.4167 21.25 46.25 20.4167 46.25 18.75V8.75" stroke="black" stroke-width="3" stroke-linecap="round"/>
<path d="M43.25 10.75V18.25C43.25 18.9167 43.5833 19.25 44.25 19.25C44.9167 19.25 45.25 18.9167 45.25 18.25V10.75" stroke="#00A8FF" stroke-width="2" stroke-linecap="round"/>
<path d="M50 21.2502V8.75016C52.5 7.91683 54.5833 8.3335 56.25 10.0002C57.0833 11.6668 57.0833 13.3335 56.25 15.0002L53.75 16.2502L56.25 21.2502" stroke="black" stroke-width="3" stroke-linecap="round"/>
<path d="M52 10.4999C53.6667 9.8332 54.6667 10.0832 55 11.2499C55.3333 12.4165 55.1667 13.2499 54.5 13.7499L53 14.4999L54.5 16.9999" stroke="#00A8FF" stroke-width="2" stroke-linecap="round"/>
<path d="M60 21.2502V8.75016C62.5 7.91683 64.5833 8.3335 66.25 10.0002C67.0833 11.6668 67.0833 13.3335 66.25 15.0002C65.4167 16.6668 63.3333 17.0835 60 16.2502C62.5 15.4168 64.5833 15.8335 66.25 17.5002C67.0833 19.1668 66.6667 20.4168 65 21.2502" stroke="black" stroke-width="3" stroke-linecap="round"/>
<path d="M62 10.4999C63.6667 9.8332 64.6667 10.0832 65 11.2499C65.3333 12.4165 65.1667 13.3332 64.5 13.9999M62 13.9999C63.6667 13.3332 64.6667 13.4999 65 14.4999C65.3333 15.4999 65.1667 16.3332 64.5 16.9999" stroke="#00A8FF" stroke-width="2" stroke-linecap="round"/>
<path d="M71.25 15C71.25 11.25 73.75 8.75 77.5 8.75C81.25 8.75 83.75 11.25 83.75 15C83.75 18.75 81.25 21.25 77.5 21.25C73.75 21.25 71.25 18.75 71.25 15Z" stroke="black" stroke-width="3" stroke-linecap="round"/>
<path d="M73.75 15C73.75 12.5 75 11.25 77.5 11.25C80 11.25 81.25 12.5 81.25 15C81.25 17.5 80 18.75 77.5 18.75C75 18.75 73.75 17.5 73.75 15Z" stroke="#00A8FF" stroke-width="2" stroke-linecap="round"/>
<path d="M87.5 21.25V8.75L92.5 21.25V8.75" stroke="black" stroke-width="3" stroke-linecap="round"/>
<path d="M89.5 19.5V10.75L92 19.5V10.75" stroke="#00A8FF" stroke-width="2" stroke-linecap="round"/>
<path d="M96.25 12.25C96.8023 12.25 97.25 11.8023 97.25 11.25C97.25 10.6977 96.8023 10.25 96.25 10.25C95.6977 10.25 95.25 10.6977 95.25 11.25C95.25 11.8023 95.6977 12.25 96.25 12.25Z" fill="#00A8FF"/>
<path d="M98.75 15.625C99.0952 15.625 99.375 15.3452 99.375 15C99.375 14.6548 99.0952 14.375 98.75 14.375C98.4048 14.375 98.125 14.6548 98.125 15C98.125 15.3452 98.4048 15.625 98.75 15.625Z" stroke="#00A8FF" stroke-width="2"/>
<path d="M100 17.4998V12.4998C100.833 12.1665 101.5 12.4165 102 13.2498C102.333 14.0831 102.083 14.6665 101.25 14.9998L100.75 15.4998L101.5 17.4998" stroke="#00A8FF" stroke-width="2"/>
<path d="M7.5 26.25C15 25 25 27 35 25.5C45 24 55 26 65 25C75 24 85 26 92.5 25.5" stroke="#00A8FF" stroke-width="2" stroke-linecap="round"/>
<path d="M45 5C45.8333 4.16667 46.6667 4.16667 47.5 5C48.3333 5.83333 48.3333 6.66667 47.5 7.5C46.6667 8.33333 45.8333 8.33333 45 7.5C44.1667 6.66667 44.1667 5.83333 45 5Z" fill="#00A8FF" fill-opacity="0.3"/>
<path d="M70.0001 6.25C70.5001 5 72.0001 5 72.5001 6.25C73.0001 7.5 72.0001 8.75 71.2501 8.25C70.5001 7.75 69.5001 7.5 70.0001 6.25Z" fill="black" fill-opacity="0.1"/>
<path d="M82.5001 25C83.0001 23.75 84.5001 23.75 85.0001 25C85.5001 26.25 84.5001 27.5 83.7501 27C83.0001 26.5 82.0001 26.25 82.5001 25Z" fill="#00A8FF" fill-opacity="0.4"/>
</g>
<defs>
<clipPath id="clip0_240_40">
<rect width="100" height="30" fill="white"/>
</clipPath>
</defs>
</svg>
